[IMG]http://i.imgur.com/62cIB.jpg[/IMG]
[code]
Playing.for.Keeps.2012.CAM.NEW.SOURCE.XVID-26K
 
http://www.imdb.com/title/tt1540128/

Plot:
A former sports star who's fallen on hard times starts coaching his son's soccer team as a way to get his life 

together.His attempts to become an adult are met with challenges from the attractive soccer moms who pursue him 

at every turn.

Sources - Audio-LIGHT....Thanks :P
          VIDEO-RUSSIAN.....Thanks :P
          Subs-NO....
Video
ID                                       : 0
Format                                   : MPEG-4 Visual
Format profile                           : Advanced Simple@L5
Format settings, BVOP                    : 2
Format settings, QPel                    : No
Format settings, GMC                     : No warppoints
Format settings, Matrix                  : Default (H.263)
Muxing mode                              : Packed bitstream
Codec ID                                 : XVID
Codec ID/Hint                            : XviD
Duration                                 : 1h 36mn
Bit rate                                 : 1 695 Kbps
Width                                    : 720 pixels
Height                                   : 280 pixels
Display aspect ratio                     : 2.553
Frame rate                               : 25.000 fps
Color space                              : YUV
Chroma subsampling                       : 4:2:0
Bit depth                                : 8 bits
Scan type                                : Progressive
Compression mode                         : Lossy
Bits/(Pixel*Frame)                       : 0.334
Stream size                              : 1.14 GiB (88%)
Writing library                          : XviD 64

Audio
ID                                       : 1
Format                                   : MPEG Audio
Format version                           : Version 1
Format profile                           : Layer 3
Mode                                     : Joint stereo
Mode extension                           : MS Stereo
Codec ID                                 : 55
Codec ID/Hint                            : MP3
Duration                                 : 1h 36mn
Bit rate mode                            : Constant
Bit rate                                 : 224 Kbps
Channel(s)                               : 2 channels
Sampling rate                            : 44.1 KHz
Compression mode                         : Lossy
Delay relative to video                  : 200ms
Stream size                              : 155 MiB (12%)
Alignment                                : Split accross interleaves
Interleave, duration                     : 9351 ms (233.77 video frames)
Writing library                          : LAME3.99r
Encoding settings                        : -m j -V 4 -q 3 -lowpass 19.4 -b 224

Notes -

here is the new video.... since the russian has more of the screen.. went ahead and tagged it as a new source.
.. work done the russian video was very noisy and is dark on the night scenes and had high hue levels!.. and had 

some cam movement.. ran few denoisers and light smoother filter turned out nice..resized to get correct ar... 

then just muxed back the LIGHT 2 channel cam audio over the encode.. was out of sync by a tiny bit... got that 

fixed.. enjoy.

[/code]

Screens:
[IMG]http://i.imgur.com/2jbir.png[/IMG]
[IMG]http://i.imgur.com/Zqhbx.png[/IMG]
[IMG]http://i.imgur.com/45zzK.png[/IMG]
[IMG]http://i.imgur.com/asu2g.png[/IMG]
[IMG]http://s6.postimage.org/kpamhwx29/vlcsnap_2012_12_16_19h33m58s199.png[/IMG]
[IMG]http://s6.postimage.org/pp82pv2ox/vlcsnap_2012_12_16_19h34m07s31.png[/IMG]
[IMG]http://s6.postimage.org/7noxs28o1/vlcsnap_2012_12_16_19h34m21s170.png[/IMG]
[IMG]http://s6.postimage.org/940ga7bkx/vlcsnap_2012_12_16_19h34m32s34.png[/IMG]
[IMG]http://s6.postimage.org/8sizxfv4x/vlcsnap_2012_12_16_19h34m45s153.png[/IMG]

Greetz:
XtremeEncode|CM8|RX|VISION|HDSCENE|xTriLL|DTRG|CRYS|BIDA|RX|REFILL|INSPiRAL|AXED|HOPE|Anonymous|NOIR|

Blackjesus|Gabroo Punjab Deh|UNiQUE|DQ1|RESiSTANCE|HS||LEGION|STN|BOBBYBLUE|LIFT

To all the people who have helped me  you know who you are

Anything to offer email us @: 26k@hushmail.me
<<bullying has to be stopped now!>>